HIERARCHY
ROOT Hips
{
	OFFSET 0.00000 0.00000 0.00000
	CHANNELS 6 Xposition Yposition Zposition Zrotation Yrotation Xrotation 
	JOINT LHipJoint
	{
		OFFSET 0 0 0
		CHANNELS 3 Zrotation Yrotation Xrotation
		JOINT LeftUpLeg
		{
			OFFSET 1.75344 -1.53157 0.77399
			CHANNELS 3 Zrotation Yrotation Xrotation
			JOINT LeftLeg
			{
				OFFSET 2.25415 -6.19323 0.00000
				CHANNELS 3 Zrotation Yrotation Xrotation
				JOINT LeftFoot
				{
					OFFSET 2.30342 -6.32861 0.00000
					CHANNELS 3 Zrotation Yrotation Xrotation
					JOINT LeftToeBase
					{
						OFFSET 0.10958 -0.30108 1.49206
						CHANNELS 3 Zrotation Yrotation Xrotation
						End Site
						{
							OFFSET 0.00000 -0.00000 0.77783
						}
					}
				}
			}
		}
	}
	JOINT RHipJoint
	{
		OFFSET 0 0 0
		CHANNELS 3 Zrotation Yrotation Xrotation
		JOINT RightUpLeg
		{
			OFFSET -1.81912 -1.53156 0.77399
			CHANNELS 3 Zrotation Yrotation Xrotation
			JOINT RightLeg
			{
				OFFSET -2.22882 -6.12365 0.00000
				CHANNELS 3 Zrotation Yrotation Xrotation
				JOINT RightFoot
				{
					OFFSET -2.21943 -6.09785 0.00000
					CHANNELS 3 Zrotation Yrotation Xrotation
					JOINT RightToeBase
					{
						OFFSET -0.18931 -0.52012 1.59379
						CHANNELS 3 Zrotation Yrotation Xrotation
						End Site
						{
							OFFSET -0.00000 -0.00000 0.84686
						}
					}
				}
			}
		}
	}
	JOINT LowerBack
	{
		OFFSET 0 0 0
		CHANNELS 3 Zrotation Yrotation Xrotation
		JOINT Spine
		{
			OFFSET -0.00200 1.66634 -0.14248
			CHANNELS 3 Zrotation Yrotation Xrotation
			JOINT Spine1
			{
				OFFSET -0.00875 1.64542 0.09514
				CHANNELS 3 Zrotation Yrotation Xrotation
				JOINT Neck
				{
					OFFSET 0 0 0
					CHANNELS 3 Zrotation Yrotation Xrotation
					JOINT Neck1
					{
						OFFSET 0.02257 1.59605 0.00839
						CHANNELS 3 Zrotation Yrotation Xrotation
						JOINT Head
						{
							OFFSET -0.10214 1.57530 -0.23335
							CHANNELS 3 Zrotation Yrotation Xrotation
							End Site
							{
								OFFSET -0.03588 1.60717 -0.08062
							}
						}
					}
				}
				JOINT LeftShoulder
				{
					OFFSET 0 0 0
					CHANNELS 3 Zrotation Yrotation Xrotation
					JOINT LeftArm
					{
						OFFSET 2.54983 1.10186 0.40078
						CHANNELS 3 Zrotation Yrotation Xrotation
						JOINT LeftForeArm
						{
							OFFSET 4.28840 -0.00000 0.00000
							CHANNELS 3 Zrotation Yrotation Xrotation
							JOINT LeftHand
							{
								OFFSET 3.06552 -0.00000 -0.00000
								CHANNELS 3 Zrotation Yrotation Xrotation
								JOINT LeftFingerBase
								{
									OFFSET 0 0 0
									CHANNELS 3 Zrotation Yrotation Xrotation
									JOINT LeftHandIndex1
									{
										OFFSET 0.75304 -0.00000 0.00000
										CHANNELS 3 Zrotation Yrotation Xrotation
										End Site
										{
											OFFSET 0.60712 -0.00000 0.00000
										}
									}
								}
								JOINT LThumb
								{
									OFFSET 0 0 0
									CHANNELS 3 Zrotation Yrotation Xrotation
									End Site
									{
										OFFSET 0.61639 -0.00000 0.61639
									}
								}
							}
						}
					}
				}
				JOINT RightShoulder
				{
					OFFSET 0 0 0
					CHANNELS 3 Zrotation Yrotation Xrotation
					JOINT RightArm
					{
						OFFSET -2.60909 1.35448 0.21802
						CHANNELS 3 Zrotation Yrotation Xrotation
						JOINT RightForeArm
						{
							OFFSET -4.52172 -0.00000 -0.00000
							CHANNELS 3 Zrotation Yrotation Xrotation
							JOINT RightHand
							{
								OFFSET -2.89140 -0.00000 0.00000
								CHANNELS 3 Zrotation Yrotation Xrotation
								JOINT RightFingerBase
								{
									OFFSET 0 0 0
									CHANNELS 3 Zrotation Yrotation Xrotation
									JOINT RightHandIndex1
									{
										OFFSET -0.68054 -0.00000 0.00000
										CHANNELS 3 Zrotation Yrotation Xrotation
										End Site
										{
											OFFSET -0.54867 -0.00000 0.00000
										}
									}
								}
								JOINT RThumb
								{
									OFFSET 0 0 0
									CHANNELS 3 Zrotation Yrotation Xrotation
									End Site
									{
										OFFSET -0.55705 -0.00000 0.55705
									}
								}
							}
						}
					}
				}
			}
		}
	}
}
MOTION
Frames: 10
Frame Time: .0083333
7.1503 15.3787 -38.0744 -179.7590 -193.8700 188.4750 0.0000 0.0000 0.0000 -22.4755 -29.7224 -7.1982 2.9204 10.5650 30.8265 1.9226 5.3032 -28.5299 1.7202 -8.2572 -23.4981 0.0000 0.0000 0.0000 30.3201 21.7415 -1.9678 -1.9276 -8.7137 24.9037 -3.0787 -31.0592 -53.8991 -2.9645 -10.6373 31.0662 0.3789 1.6707 5.7370 -0.6187 2.2516 -5.8479 -1.1792 1.0525 -9.3709 -9.0191 -6.4021 -3.1659 6.2533 -8.6239 9.8742 2.9398 -4.3075 4.1308 0.0000 -0.0000 0.0000 -77.9465 23.9414 33.2766 17.7136 -27.7890 -4.4149 -0.0000 -0.0000 20.7429 -1.4448 -33.0927 0.7890 -7.1250 0.0000 -0.0000 -18.5656 -1.6461 20.1688 0.0000 -0.0000 0.0000 78.5735 -24.0324 49.6971 -16.6243 26.3598 -3.9191 0.0000 0.0000 25.7897 2.7544 -56.9424 -2.3090 7.1250 -0.0000 -0.0000 -18.9252 7.8067 -162.8309
7.1620 15.3787 -38.0886 -179.9130 -193.9550 188.5520 0.0000 0.0000 0.0000 -22.1630 -29.5577 -7.5781 2.9312 10.5828 30.8853 1.8993 5.3815 -28.4176 2.0614 -8.9927 -25.7726 0.0000 0.0000 0.0000 30.4145 21.9940 -1.9648 -1.9100 -8.6760 24.7869 -3.0873 -31.1721 -54.0256 -2.9526 -10.6180 31.0021 0.4446 1.8114 5.5562 -0.6297 2.4464 -5.7929 -1.2454 1.1449 -9.1961 -8.8493 -6.5655 -3.1495 6.2682 -8.8567 9.8130 2.9039 -4.4154 4.1206 -0.0000 -0.0000 0.0000 -77.7651 24.7111 33.8221 18.1134 -28.3021 -4.6029 -0.0000 -0.0000 18.9735 -1.1627 -32.8736 0.6312 -7.1250 0.0000 -0.0000 -18.4147 -1.4576 19.9253 -0.0000 -0.0000 0.0000 78.7948 -23.6149 49.2926 -16.8903 26.7129 -4.0379 0.0000 0.0000 24.9001 2.3204 -56.9153 -1.9445 7.1250 -0.0000 -0.0000 -18.7718 7.7609 -162.9695
7.1733 15.3730 -38.1020 -179.9380 -194.1320 188.5540 0.0000 0.0000 0.0000 -22.0377 -29.3031 -7.8498 2.9386 10.5949 30.9256 1.9017 5.1109 -28.2908 2.3770 -9.6107 -27.7251 0.0000 0.0000 0.0000 30.5334 22.6038 -1.6529 -1.8952 -8.6442 24.6885 -3.4917 -30.9929 -55.0445 -3.1452 -10.9265 32.0323 0.3741 1.8299 5.3979 -0.5712 2.4679 -5.6737 -1.1373 1.1649 -8.9769 -8.9351 -6.6339 -3.1371 6.3434 -8.9487 9.7352 2.9355 -4.4605 4.1094 0.0000 0.0000 0.0000 -77.9178 25.4624 34.0830 18.4776 -28.7643 -4.7768 -0.0000 -0.0000 17.2740 -0.2822 -32.3247 0.1509 -7.1250 0.0000 -0.0000 -17.9394 -0.9994 19.2101 0.0000 0.0000 0.0000 78.8232 -23.1151 48.8541 -17.1608 27.0692 -4.1602 0.0000 0.0000 24.1581 1.4321 -56.7720 -1.1980 7.1250 -0.0000 -0.0000 -18.4607 7.7487 -163.2810
7.1842 15.3654 -38.1166 -179.9630 -194.3420 188.4470 0.0000 0.0000 0.0000 -21.9844 -29.1013 -7.9205 2.9379 10.5939 30.9221 1.9618 4.4572 -28.3567 2.4033 -9.6600 -27.8825 0.0000 0.0000 0.0000 30.6526 22.8537 -1.4143 -1.8884 -8.6297 24.6438 -3.8940 -30.7274 -55.9657 -3.4404 -11.3760 33.5587 0.5928 1.8581 5.6765 -0.7776 2.5121 -5.7439 -1.4971 1.1612 -9.1993 -8.6945 -6.7230 -2.8531 6.4787 -9.1201 9.6890 2.9388 -4.5359 4.0561 0.0000 -0.0000 0.0000 -77.4208 26.5750 34.7904 18.9620 -29.3715 -5.0122 -0.0000 -0.0000 15.6147 0.8576 -31.7701 -0.4516 -7.1250 0.0000 -0.0000 -17.3159 -0.5587 18.3391 0.0000 -0.0000 0.0000 79.4645 -22.9531 47.9020 -17.3461 27.3117 -4.2449 0.0000 0.0000 23.7413 0.3056 -56.5162 -0.2549 7.1250 -0.0000 -0.0000 -18.0646 7.7982 -163.6996
7.1939 15.3583 -38.1331 -180.0030 -194.4400 188.3670 0.0000 0.0000 0.0000 -21.9415 -28.9250 -7.9962 2.9275 10.5768 30.8655 1.9897 4.1226 -28.3777 2.3983 -9.6506 -27.8526 0.0000 0.0000 0.0000 30.6562 22.6388 -1.4970 -1.8913 -8.6358 24.6626 -3.9265 -30.7364 -56.0644 -3.5250 -11.4999 33.9852 0.5212 1.7841 5.7302 -0.6537 2.4142 -5.6117 -1.3112 1.1240 -9.0971 -8.8909 -6.6945 -3.1320 6.4944 -9.0503 9.7403 2.9682 -4.5023 4.1225 -0.0000 -0.0000 0.0000 -77.8451 27.2882 34.5473 19.2219 -29.6935 -5.1403 -0.0000 -0.0000 14.5001 1.2393 -31.9300 -0.6555 -7.1250 0.0000 -0.0000 -17.1086 -0.7422 18.1538 -0.0000 -0.0000 0.0000 79.3974 -22.3394 47.3881 -17.5044 27.5180 -4.3178 0.0000 0.0000 23.4438 -0.4040 -56.5409 0.3370 7.1250 -0.0000 -0.0000 -17.8043 7.6491 -163.9057
7.2030 15.3520 -38.1481 -179.9740 -194.4710 188.3640 0.0000 0.0000 0.0000 -22.0032 -28.7907 -8.0761 2.9124 10.5518 30.7828 1.9558 4.3915 -28.2843 2.5818 -9.9851 -28.9285 0.0000 0.0000 0.0000 30.5791 22.5941 -1.6080 -1.8983 -8.6510 24.7095 -3.7177 -31.2175 -55.8763 -3.3384 -11.2237 33.0380 0.1711 1.8028 5.6209 -0.4566 2.4191 -5.4612 -0.8993 1.1587 -8.8910 -8.9663 -6.7161 -3.3829 6.2831 -9.0312 9.7488 2.9077 -4.5000 4.1597 0.0000 0.0000 0.0000 -78.3996 27.7595 34.4022 19.2892 -29.7764 -5.1737 -0.0000 -0.0000 13.8432 1.0733 -32.2005 -0.5720 -7.1250 0.0000 -0.0000 -17.2023 -0.9865 18.3373 0.0000 0.0000 0.0000 79.3264 -21.7592 46.4748 -17.6132 27.6591 -4.3682 0.0000 0.0000 23.6309 -0.9721 -56.5394 0.8110 7.1250 -0.0000 -0.0000 -17.5968 7.5487 -164.0771
7.2142 15.3487 -38.1602 -179.8530 -194.5230 188.3500 0.0000 0.0000 0.0000 -22.2363 -28.7779 -7.9947 2.8939 10.5213 30.6818 1.8818 5.3123 -28.2640 3.0419 -10.7625 -31.4830 0.0000 0.0000 0.0000 30.4860 22.7241 -1.5783 -1.9076 -8.6710 24.7714 -3.5709 -31.7330 -55.9023 -3.2577 -11.1010 32.6211 -0.1315 1.8249 5.6067 -0.3761 2.4252 -5.3794 -0.6434 1.1843 -8.8097 -8.9855 -6.7147 -3.3831 6.1419 -9.0105 9.6970 2.8695 -4.4966 4.1372 0.0000 -0.0000 0.0000 -78.6848 28.4025 34.5306 19.4537 -29.9785 -5.2556 -0.0000 -0.0000 13.2995 0.8037 -31.9835 -0.4257 -7.1250 0.0000 -0.0000 -17.3472 -0.7580 18.4370 0.0000 -0.0000 0.0000 79.4336 -21.2350 45.6196 -17.6033 27.6463 -4.3636 0.0000 0.0000 23.7015 -1.9476 -56.3923 1.6223 7.1250 -0.0000 -0.0000 -17.2431 7.5101 -164.4167
7.2279 15.3458 -38.1725 -179.7890 -194.5030 188.2220 0.0000 0.0000 0.0000 -22.4719 -28.7242 -7.7625 2.8710 10.4832 30.5561 1.8470 6.0105 -28.4131 3.3315 -11.2133 -33.0026 0.0000 0.0000 0.0000 30.4370 22.6415 -1.5282 -1.9233 -8.7044 24.8751 -3.6943 -31.5819 -56.1173 -3.4550 -11.3975 33.6326 0.0405 1.8310 6.0156 -0.5742 2.4342 -5.4670 -0.9682 1.1672 -9.1310 -8.7723 -6.6964 -3.2488 6.1004 -9.0112 9.7986 2.8271 -4.4940 4.1340 0.0000 -0.0000 0.0000 -78.4813 29.2674 34.6422 19.5845 -30.1385 -5.3212 -0.0000 -0.0000 12.9566 0.3696 -31.9045 -0.1953 -7.1250 0.0000 -0.0000 -17.5834 -0.6485 18.6797 0.0000 -0.0000 0.0000 80.0275 -20.9403 44.8073 -17.5547 27.5833 -4.3411 0.0000 0.0000 23.6839 -2.8365 -56.4233 2.3638 7.1250 -0.0000 -0.0000 -16.9151 7.3152 -164.6752
7.2416 15.3426 -38.1863 -179.7920 -194.3760 188.1230 0.0000 0.0000 0.0000 -22.6237 -28.6854 -7.5649 2.8419 10.4346 30.3958 1.8706 6.2157 -28.6852 3.4275 -11.3569 -33.4934 0.0000 0.0000 0.0000 30.3399 22.3892 -1.6799 -1.9494 -8.7599 25.0472 -3.8861 -30.9826 -56.1528 -3.7108 -11.7653 34.9068 0.1431 1.8475 6.2915 -0.6708 2.4587 -5.5100 -1.1436 1.1663 -9.3327 -8.5817 -6.6750 -3.2898 5.9482 -8.9839 9.9998 2.7488 -4.4800 4.1843 0.0000 0.0000 0.0000 -78.5779 29.8447 34.3403 19.4269 -29.9457 -5.2423 -0.0000 -0.0000 13.0862 0.1714 -32.3409 -0.0917 -7.1250 0.0000 -0.0000 -17.6938 -1.0490 18.9349 0.0000 0.0000 0.0000 80.4695 -20.5673 44.0865 -17.4821 27.4889 -4.3075 0.0000 0.0000 23.9354 -3.3454 -56.4918 2.7904 7.1250 -0.0000 -0.0000 -16.7280 7.1547 -164.8064
7.2577 15.3389 -38.1993 -179.6490 -194.2470 188.1000 0.0000 0.0000 0.0000 -22.9545 -28.8344 -7.3087 2.8089 10.3791 30.2132 1.9444 6.0870 -29.0970 3.2695 -11.1191 -32.6825 0.0000 0.0000 0.0000 30.0436 22.1471 -1.9261 -1.9831 -8.8307 25.2673 -3.8884 -30.6471 -55.8843 -3.8537 -11.9632 35.6018 0.0501 1.8305 6.4211 -0.7110 2.4221 -5.4952 -1.1337 1.1522 -9.3962 -8.6418 -6.5647 -3.4355 5.9589 -8.8256 10.1434 2.7652 -4.4013 4.2437 -0.0000 0.0000 0.0000 -78.9882 30.2698 33.7160 19.1478 -29.6019 -5.1036 -0.0000 -0.0000 13.5196 0.5498 -32.8258 -0.2980 -7.1250 0.0000 -0.0000 -17.4935 -1.5403 18.8491 -0.0000 0.0000 0.0000 80.6875 -20.0789 43.5316 -17.4000 27.3821 -4.2697 0.0000 0.0000 24.2033 -3.2949 -56.6742 2.7540 7.1250 -0.0000 -0.0000 -16.7457 6.9927 -164.7335
